<svg width="200" height="200" viewBox="0 0 200 200" fill="none" xmlns="http://www.w3.org/2000/svg">
    <g clip-path="url(#clip0_1_29794)">
        <path d="M136.56 4.93546H142.56V-1.06454H136.56V4.93546Z" fill="#333333"/>
        <path d="M126.266 4.93546H132.266V-1.06454H126.266V4.93546Z" fill="#333333"/>
        <path d="M115.887 4.93546H121.887V-1.06454H115.887V4.93546Z" fill="#333333"/>
        <path d="M105.593 4.93546H111.593V-1.06454H105.593V4.93546Z" fill="#333333"/>
        <path d="M64.4197 4.93546H70.4197V-1.06454H64.4197V4.93546Z" fill="#333333"/>
        <path d="M54.1257 4.93546H60.1257V-1.06454H54.1257V4.93546Z" fill="#333333"/>
        <path d="M146.853 15.2292H152.853V9.22922H146.853V15.2292Z" fill="#333333"/>
        <path d="M126.266 15.2292H132.266V9.22922H126.266V15.2292Z" fill="#333333"/>
        <path d="M105.593 15.2292H111.593V9.22922H105.593V15.2292Z" fill="#333333"/>
        <path d="M95.2994 15.2292H101.299V9.22922H95.2994V15.2292Z" fill="#333333"/>
        <path d="M85.0063 15.2292H91.0063V9.22922H85.0063V15.2292Z" fill="#333333"/>
        <path d="M74.7123 15.2292H80.7123V9.22922H74.7123V15.2292Z" fill="#333333"/>
        <path d="M64.4197 15.2292H70.4197V9.22922H64.4197V15.2292Z" fill="#333333"/>
        <path d="M33.4522 15.2292H39.4522V9.22922H33.4522V15.2292Z" fill="#333333"/>
        <path d="M23.1595 15.2292H29.1595V9.22922H23.1595V15.2292Z" fill="#333333"/>
        <path d="M12.866 15.2292H18.866V9.22922H12.866V15.2292Z" fill="#333333"/>
        <path d="M198.406 46.1094H204.406V40.1094H198.406V46.1094Z" fill="#333333"/>
        <path d="M157.146 46.1094H163.146V40.1094H157.146V46.1094Z" fill="#333333"/>
        <path d="M146.853 46.1094H152.853V40.1094H146.853V46.1094Z" fill="#333333"/>
        <path d="M115.887 46.1094H121.887V40.1094H115.887V46.1094Z" fill="#333333"/>
        <path d="M85.0063 46.1094H91.0063V40.1094H85.0063V46.1094Z" fill="#333333"/>
        <path d="M64.4197 46.1094H70.4197V40.1094H64.4197V46.1094Z" fill="#333333"/>
        <path d="M54.1257 46.1094H60.1257V40.1094H54.1257V46.1094Z" fill="#333333"/>
        <path d="M12.866 46.1094H18.866V40.1094H12.866V46.1094Z" fill="#333333"/>
        <path d="M2.57244 46.1094H8.57244V40.1094H2.57244V46.1094Z" fill="#333333"/>
        <path d="M198.406 56.4889H204.406V50.4889H198.406V56.4889Z" fill="#333333"/>
        <path d="M177.733 56.4889H183.733V50.4889H177.733V56.4889Z" fill="#333333"/>
        <path d="M167.44 56.4889H173.44V50.4889H167.44V56.4889Z" fill="#333333"/>
        <path d="M105.593 56.4889H111.593V50.4889H105.593V56.4889Z" fill="#333333"/>
        <path d="M54.1257 56.4889H60.1257V50.4889H54.1257V56.4889Z" fill="#333333"/>
        <path d="M43.7462 56.4889H49.7462V50.4889H43.7462V56.4889Z" fill="#333333"/>
        <path d="M23.1595 56.4889H29.1595V50.4889H23.1595V56.4889Z" fill="#333333"/>
        <path d="M33.4522 66.7822H39.4522V60.7822H33.4522V66.7822Z" fill="#333333"/>
        <path d="M23.1595 66.7822H29.1595V60.7822H23.1595V66.7822Z" fill="#333333"/>
        <path d="M12.866 66.7822H18.866V60.7822H12.866V66.7822Z" fill="#333333"/>
        <path d="M2.57244 66.7822H8.57244V60.7822H2.57244V66.7822Z" fill="#333333"/>
        <path d="M146.853 97.6627H152.853V91.6627H146.853V97.6627Z" fill="#333333"/>
        <path d="M136.56 97.6627H142.56V91.6627H136.56V97.6627Z" fill="#333333"/>
        <path d="M85.0063 97.6627H91.0063V91.6627H85.0063V97.6627Z" fill="#333333"/>
        <path d="M74.7123 97.6627H80.7123V91.6627H74.7123V97.6627Z" fill="#333333"/>
        <path d="M43.7462 97.6627H49.7462V91.6627H43.7462V97.6627Z" fill="#333333"/>
        <path d="M2.57244 97.6627H8.57244V91.6627H2.57244V97.6627Z" fill="#333333"/>
        <path d="M105.593 107.956H111.593V101.956H105.593V107.956Z" fill="#333333"/>
        <path d="M95.2994 107.956H101.299V101.956H95.2994V107.956Z" fill="#333333"/>
        <path d="M64.4197 107.956H70.4197V101.956H64.4197V107.956Z" fill="#333333"/>
        <path d="M54.1257 107.956H60.1257V101.956H54.1257V107.956Z" fill="#333333"/>
        <path d="M23.1595 107.956H29.1595V101.956H23.1595V107.956Z" fill="#333333"/>
        <path d="M2.57244 107.956H8.57244V101.956H2.57244V107.956Z" fill="#333333"/>
        <path d="M74.7123 118.25H80.7123V112.25H74.7123V118.25Z" fill="#333333"/>
        <path d="M54.1257 118.25H60.1257V112.25H54.1257V118.25Z" fill="#333333"/>
        <path d="M43.7462 118.25H49.7462V112.25H43.7462V118.25Z" fill="#333333"/>
        <path d="M23.1595 118.25H29.1595V112.25H23.1595V118.25Z" fill="#333333"/>
        <path d="M2.57244 118.25H8.57244V112.25H2.57244V118.25Z" fill="#333333"/>
        <path d="M74.7123 149.216H80.7123V143.216H74.7123V149.216Z" fill="#333333"/>
        <path d="M54.1257 149.216H60.1257V143.216H54.1257V149.216Z" fill="#333333"/>
        <path d="M43.7462 149.216H49.7462V143.216H43.7462V149.216Z" fill="#333333"/>
        <path d="M33.4522 149.216H39.4522V143.216H33.4522V149.216Z" fill="#333333"/>
        <path d="M23.1595 149.216H29.1595V143.216H23.1595V149.216Z" fill="#333333"/>
        <path d="M12.866 149.216H18.866V143.216H12.866V149.216Z" fill="#333333"/>
        <path d="M2.57244 149.216H8.57244V143.216H2.57244V149.216Z" fill="#333333"/>
        <path d="M188.027 159.509H194.027V153.509H188.027V159.509Z" fill="#333333"/>
        <path d="M167.44 159.509H173.44V153.509H167.44V159.509Z" fill="#333333"/>
        <path d="M157.146 159.509H163.146V153.509H157.146V159.509Z" fill="#333333"/>
        <path d="M136.56 159.509H142.56V153.509H136.56V159.509Z" fill="#333333"/>
        <path d="M95.2994 159.509H101.299V153.509H95.2994V159.509Z" fill="#333333"/>
        <path d="M43.7462 159.509H49.7462V153.509H43.7462V159.509Z" fill="#333333"/>
        <path d="M2.57244 159.509H8.57244V153.509H2.57244V159.509Z" fill="#333333"/>
        <path d="M54.1257 169.803H60.1257V163.803H54.1257V169.803Z" fill="#333333"/>
        <path d="M33.4522 169.803H39.4522V163.803H33.4522V169.803Z" fill="#333333"/>
        <path d="M23.1595 169.803H29.1595V163.803H23.1595V169.803Z" fill="#333333"/>
        <path d="M12.866 169.803H18.866V163.803H12.866V169.803Z" fill="#333333"/>
        <path d="M2.57244 169.803H8.57244V163.803H2.57244V169.803Z" fill="#333333"/>
        <path d="M43.7462 180.096H49.7462V174.096H43.7462V180.096Z" fill="#333333"/>
        <path d="M2.57244 180.096H8.57244V174.096H2.57244V180.096Z" fill="#333333"/>
    </g>
    <defs>
        <clipPath id="clip0_1_29794">
            <rect width="200" height="200" fill="white" transform="matrix(-1 0 0 -1 200 200)"/>
        </clipPath>
    </defs>
</svg>
