<svg width="486" height="180" viewBox="0 0 486 180" fill="none" xmlns="http://www.w3.org/2000/svg">
    <g clip-path="url(#clip0_1_34749)">
        <path d="M407.874 178.56H401.874V184.56H407.874L407.874 178.56Z" fill="#333333"/>
        <path d="M438.84 178.56H432.84V184.56H438.84L438.84 178.56Z" fill="#333333"/>
        <path d="M469.721 178.56H463.721V184.56H469.721L469.721 178.56Z" fill="#333333"/>
        <path d="M490.307 178.56H484.307V184.56H490.307L490.307 178.56Z" fill="#333333"/>
        <path d="M438.84 168.267H432.84V174.267H438.84L438.84 168.267Z" fill="#333333"/>
        <path d="M449.134 168.267H443.134V174.267H449.134L449.134 168.267Z" fill="#333333"/>
        <path d="M459.428 168.267H453.428V174.267H459.428L459.428 168.267Z" fill="#333333"/>
        <path d="M480.015 168.267H474.015V174.267H480.015L480.015 168.267Z" fill="#333333"/>
        <path d="M490.307 168.267H484.307V174.267H490.307L490.307 168.267Z" fill="#333333"/>
        <path d="M480.015 147.594H474.015V153.594H480.015L480.015 147.594Z" fill="#333333"/>
        <path d="M490.307 147.594H484.307V153.594H490.307L490.307 147.594Z" fill="#333333"/>
        <path d="M356.407 137.301H350.407V143.301H356.407L356.407 137.301Z" fill="#333333"/>
        <path d="M366.701 137.301H360.701V143.301H366.701L366.701 137.301Z" fill="#333333"/>
        <path d="M376.994 137.301H370.994V143.301H376.994L376.994 137.301Z" fill="#333333"/>
        <path d="M397.58 137.301H391.58V143.301H397.58L397.58 137.301Z" fill="#333333"/>
        <path d="M418.254 137.301H412.254V143.301H418.254L418.254 137.301Z" fill="#333333"/>
        <path d="M438.84 137.301H432.84V143.301H438.84L438.84 137.301Z" fill="#333333"/>
        <path d="M490.307 137.301H484.307V143.301H490.307L490.307 137.301Z" fill="#333333"/>
        <path d="M325.44 127.007H319.44V133.007H325.44L325.44 127.007Z" fill="#333333"/>
        <path d="M335.734 127.007H329.734V133.007H335.734L335.734 127.007Z" fill="#333333"/>
        <path d="M346.114 127.007H340.114V133.007H346.114L346.114 127.007Z" fill="#333333"/>
        <path d="M356.407 127.007H350.407V133.007H356.407L356.407 127.007Z" fill="#333333"/>
        <path d="M397.58 127.007H391.58V133.007H397.58L397.58 127.007Z" fill="#333333"/>
        <path d="M407.874 127.007H401.874V133.007H407.874L407.874 127.007Z" fill="#333333"/>
        <path d="M480.015 127.007H474.015V133.007H480.015L480.015 127.007Z" fill="#333333"/>
        <path d="M490.307 127.007H484.307V133.007H490.307L490.307 127.007Z" fill="#333333"/>
        <path d="M315.147 116.714H309.147V122.714H315.147L315.147 116.714Z" fill="#333333"/>
        <path d="M335.734 116.714H329.734V122.714H335.734L335.734 116.714Z" fill="#333333"/>
        <path d="M356.407 116.714H350.407V122.714H356.407L356.407 116.714Z" fill="#333333"/>
        <path d="M366.701 116.714H360.701V122.714H366.701L366.701 116.714Z" fill="#333333"/>
        <path d="M376.994 116.714H370.994V122.714H376.994L376.994 116.714Z" fill="#333333"/>
        <path d="M387.288 116.714H381.288V122.714H387.288L387.288 116.714Z" fill="#333333"/>
        <path d="M397.58 116.714H391.58V122.714H397.58L397.58 116.714Z" fill="#333333"/>
        <path d="M428.548 116.714H422.548V122.714H428.548L428.548 116.714Z" fill="#333333"/>
        <path d="M438.84 116.714H432.84V122.714H438.84L438.84 116.714Z" fill="#333333"/>
        <path d="M449.134 116.714H443.134V122.714H449.134L449.134 116.714Z" fill="#333333"/>
        <path d="M469.721 116.714H463.721V122.714H469.721L469.721 116.714Z" fill="#333333"/>
        <path d="M480.015 116.714H474.015V122.714H480.015L480.015 116.714Z" fill="#333333"/>
        <path d="M490.307 96.1268H484.307V102.127H490.307L490.307 96.1268Z" fill="#333333"/>
        <path d="M263.594 85.8335H257.594V91.8335H263.594L263.594 85.8335Z" fill="#333333"/>
        <path d="M304.854 85.8335H298.854V91.8335H304.854L304.854 85.8335Z" fill="#333333"/>
        <path d="M315.147 85.8335H309.147V91.8335H315.147L315.147 85.8335Z" fill="#333333"/>
        <path d="M346.114 85.8335H340.114V91.8335H346.114L346.114 85.8335Z" fill="#333333"/>
        <path d="M376.994 85.8335H370.994V91.8335H376.994L376.994 85.8335Z" fill="#333333"/>
        <path d="M397.58 85.8335H391.58V91.8335H397.58L397.58 85.8335Z" fill="#333333"/>
        <path d="M407.874 85.8335H401.874V91.8335H407.874L407.874 85.8335Z" fill="#333333"/>
        <path d="M449.134 85.8335H443.134V91.8335H449.134L449.134 85.8335Z" fill="#333333"/>
        <path d="M459.428 85.8335H453.428V91.8335H459.428L459.428 85.8335Z" fill="#333333"/>
        <path d="M480.015 85.8335H474.015V91.8335H480.015L480.015 85.8335Z" fill="#333333"/>
        <path d="M490.307 85.8335H484.307V91.8335H490.307L490.307 85.8335Z" fill="#333333"/>
        <path d="M263.594 75.4539H257.594V81.4539H263.594L263.594 75.4539Z" fill="#333333"/>
        <path d="M284.267 75.4539H278.267V81.4539H284.267L284.267 75.4539Z" fill="#333333"/>
        <path d="M294.56 75.4539H288.56V81.4539H294.56L294.56 75.4539Z" fill="#333333"/>
        <path d="M356.407 75.4539H350.407V81.4539H356.407L356.407 75.4539Z" fill="#333333"/>
        <path d="M407.874 75.4539H401.874V81.4539H407.874L407.874 75.4539Z" fill="#333333"/>
        <path d="M418.254 75.4539H412.254V81.4539H418.254L418.254 75.4539Z" fill="#333333"/>
        <path d="M438.84 75.4539H432.84V81.4539H438.84L438.84 75.4539Z" fill="#333333"/>
        <path d="M490.307 75.4539H484.307V81.4539H490.307L490.307 75.4539Z" fill="#333333"/>
        <path d="M428.548 65.1607H422.548V71.1607H428.548L428.548 65.1607Z" fill="#333333"/>
        <path d="M438.84 65.1607H432.84V71.1607H438.84L438.84 65.1607Z" fill="#333333"/>
        <path d="M449.134 65.1607H443.134V71.1607H449.134L449.134 65.1607Z" fill="#333333"/>
        <path d="M459.428 65.1607H453.428V71.1607H459.428L459.428 65.1607Z" fill="#333333"/>
        <path d="M480.015 65.1607H474.015V71.1607H480.015L480.015 65.1607Z" fill="#333333"/>
        <path d="M490.307 65.1607H484.307V71.1607H490.307L490.307 65.1607Z" fill="#333333"/>
        <path d="M315.147 34.2802H309.147V40.2802H315.147L315.147 34.2802Z" fill="#333333"/>
        <path d="M325.44 34.2802H319.44V40.2802H325.44L325.44 34.2802Z" fill="#333333"/>
        <path d="M376.994 34.2802H370.994V40.2802H376.994L376.994 34.2802Z" fill="#333333"/>
        <path d="M387.288 34.2802H381.288V40.2802H387.288L387.288 34.2802Z" fill="#333333"/>
        <path d="M418.254 34.2802H412.254V40.2802H418.254L418.254 34.2802Z" fill="#333333"/>
        <path d="M459.428 34.2802H453.428V40.2802H459.428L459.428 34.2802Z" fill="#333333"/>
        <path d="M469.721 34.2802H463.721V40.2802H469.721L469.721 34.2802Z" fill="#333333"/>
        <path d="M356.407 23.9866H350.407V29.9866H356.407L356.407 23.9866Z" fill="#333333"/>
        <path d="M366.701 23.9866H360.701V29.9866H366.701L366.701 23.9866Z" fill="#333333"/>
        <path d="M397.58 23.9866H391.58V29.9866H397.58L397.58 23.9866Z" fill="#333333"/>
        <path d="M407.874 23.9866H401.874V29.9866H407.874L407.874 23.9866Z" fill="#333333"/>
        <path d="M438.84 23.9866H432.84V29.9866H438.84L438.84 23.9866Z" fill="#333333"/>
        <path d="M459.428 23.9866H453.428V29.9866H459.428L459.428 23.9866Z" fill="#333333"/>
        <path d="M469.721 23.9866H463.721V29.9866H469.721L469.721 23.9866Z" fill="#333333"/>
        <path d="M480.015 23.9866H474.015V29.9866H480.015L480.015 23.9866Z" fill="#333333"/>
        <path d="M387.288 13.6933H381.288V19.6933H387.288L387.288 13.6933Z" fill="#333333"/>
        <path d="M407.874 13.6933H401.874V19.6933H407.874L407.874 13.6933Z" fill="#333333"/>
        <path d="M418.254 13.6933H412.254V19.6933H418.254L418.254 13.6933Z" fill="#333333"/>
        <path d="M438.84 13.6933H432.84V19.6933H438.84L438.84 13.6933Z" fill="#333333"/>
        <path d="M459.428 13.6933H453.428V19.6933H459.428L459.428 13.6933Z" fill="#333333"/>
        <path d="M469.721 13.6933H463.721V19.6933H469.721L469.721 13.6933Z" fill="#333333"/>
        <path d="M480.015 13.6933H474.015V19.6933H480.015L480.015 13.6933Z" fill="#333333"/>
        <path d="M490.307 13.6933H484.307V19.6933H490.307L490.307 13.6933Z" fill="#333333"/>
        <path d="M469.721 3.39981L463.721 3.39981V9.39981H469.721L469.721 3.39981Z" fill="#333333"/>
        <path d="M480.015 3.39981L474.015 3.39981V9.39981H480.015L480.015 3.39981Z" fill="#333333"/>
        <path d="M490.307 3.39981L484.307 3.39981V9.39981H490.307L490.307 3.39981Z" fill="#333333"/>
    </g>
    <defs>
        <clipPath id="clip0_1_34749">
            <rect width="1181.09" height="871.943" fill="white" transform="translate(0 -110)"/>
        </clipPath>
    </defs>
</svg>
